<svg width="960" height="720" viewBox="0 0 960 720" fill="none" xmlns="http://www.w3.org/2000/svg">
  <rect width="960" height="720" rx="36" fill="#F4EEE7"/>
  <rect x="64" y="72" width="832" height="576" rx="28" fill="url(#paint0_linear)"/>
  <circle cx="774" cy="164" r="58" fill="#D9C1A2" fill-opacity="0.6"/>
  <circle cx="184" cy="150" r="74" fill="#C98A58" fill-opacity="0.18"/>
  <rect x="144" y="432" width="660" height="122" rx="26" fill="#B78458"/>
  <rect x="192" y="346" width="562" height="132" rx="40" fill="#D6A16B"/>
  <rect x="192" y="316" width="562" height="68" rx="34" fill="#E5B783"/>
  <rect x="222" y="366" width="176" height="86" rx="30" fill="#F6D7AF"/>
  <rect x="548" y="366" width="176" height="86" rx="30" fill="#F6D7AF"/>
  <rect x="444" y="282" width="58" height="48" rx="20" fill="#8A5B3A"/>
  <rect x="164" y="530" width="34" height="84" rx="17" fill="#7A5236"/>
  <rect x="744" y="530" width="34" height="84" rx="17" fill="#7A5236"/>
  <rect x="684" y="224" width="28" height="176" rx="14" fill="#2C4B42"/>
  <ellipse cx="698" cy="206" rx="74" ry="90" fill="#4A6E5F"/>
  <rect x="250" y="198" width="18" height="126" rx="9" fill="#7A5236"/>
  <ellipse cx="259" cy="184" rx="62" ry="78" fill="#D6B89A"/>
  <rect x="120" y="552" width="720" height="18" rx="9" fill="#D8C8B5" fill-opacity="0.8"/>
  <defs>
    <linearGradient id="paint0_linear" x1="480" y1="72" x2="480" y2="648" gradientUnits="userSpaceOnUse">
      <stop stop-color="#FFF8F1"/>
      <stop offset="1" stop-color="#F2E5D9"/>
    </linearGradient>
  </defs>
</svg>
